<?xml version="1.0" standalone="no"?>
<!DOCTYPE svg PUBLIC "-//W3C//DTD SVG 20010904//EN"
 "http://www.w3.org/TR/2001/REC-SVG-20010904/DTD/svg10.dtd">
<svg version="1.0" xmlns="http://www.w3.org/2000/svg"
 width="500.000000pt" height="500.000000pt" viewBox="0 0 500.000000 500.000000"
 preserveAspectRatio="xMidYMid meet">
<metadata>
Created by potrace 1.14, written by Peter Selinger 2001-2017
</metadata>
<g transform="translate(0.000000,500.000000) scale(0.100000,-0.100000)"
fill="#000000" stroke="none">
<path d="M0 2500 l0 -2500 2500 0 2500 0 0 2500 0 2500 -2500 0 -2500 0 0
-2500z m2310 925 c0 -6 -120 -174 -129 -179 -3 -2 -43 14 -87 35 -137 66 -250
90 -456 96 l-178 6 0 -302 0 -301 -200 0 -200 0 0 143 c0 138 -14 378 -26 465
l-6 42 641 0 c352 0 641 -2 641 -5z m1650 -38 c0 -38 -20 -75 -172 -325 l-172
-282 -234 0 c-186 0 -233 3 -229 13 4 12 84 143 276 456 l82 133 -278 -4
c-258 -5 -285 -7 -375 -31 -53 -14 -129 -42 -168 -61 -39 -20 -74 -36 -78 -36
-4 0 -38 41 -75 90 l-67 90 745 0 745 0 0 -43z m-1971 -823 c11 -10 -13 -21
-36 -16 -31 5 -26 -5 9 -22 27 -13 30 -44 7 -59 -21 -13 -69 -1 -69 19 0 11 4
12 19 4 11 -5 24 -10 30 -10 21 0 11 19 -16 32 -36 17 -41 45 -11 57 20 8 55
6 67 -5z m-580 -26 l12 -33 17 33 c9 18 23 32 34 32 15 0 18 -8 18 -55 0 -42
-3 -55 -15 -55 -11 0 -15 11 -15 38 l-1 37 -14 -32 c-17 -40 -28 -41 -46 -5
l-13 27 -4 -32 c-6 -54 -22 -37 -22 22 0 46 3 55 18 55 11 0 23 -13 31 -32z
m327 -25 c17 -41 20 -53 9 -53 -8 0 -17 5 -20 10 -9 14 -62 13 -67 -1 -2 -7
-9 -10 -15 -8 -7 3 -2 23 13 57 30 67 48 66 80 -5z m494 47 c0 -5 -9 -10 -20
-10 -17 0 -20 -7 -20 -45 0 -25 -4 -45 -10 -45 -5 0 -10 20 -10 45 0 38 -3 45
-20 45 -11 0 -20 5 -20 10 0 6 23 10 50 10 28 0 50 -4 50 -10z m230 0 c0 -5
-13 -10 -30 -10 -16 0 -30 -4 -30 -10 0 -5 14 -10 30 -10 17 0 30 -4 30 -10 0
-5 -13 -10 -30 -10 -20 0 -30 -5 -30 -15 0 -10 11 -15 35 -15 19 0 35 -4 35
-10 0 -5 -22 -10 -50 -10 l-50 0 0 55 0 55 45 0 c25 0 45 -4 45 -10z m248 -7
c6 -11 6 -25 -1 -40 -7 -16 -7 -26 3 -38 10 -13 9 -15 -8 -15 -11 0 -22 7 -26
15 -3 8 -10 15 -16 15 -5 0 -10 -7 -10 -15 0 -8 -7 -15 -15 -15 -12 0 -15 13
-15 55 l0 55 40 0 c26 0 42 -5 48 -17z m426 1 c37 -37 1 -94 -59 -94 l-35 0 0
55 0 55 39 0 c23 0 46 -7 55 -16z m256 6 c0 -5 -13 -10 -30 -10 -16 0 -30 -4
-30 -10 0 -5 11 -10 25 -10 14 0 25 -4 25 -10 0 -5 -11 -10 -25 -10 -16 0 -25
-6 -25 -15 0 -10 10 -15 30 -15 17 0 30 -4 30 -10 0 -5 -20 -10 -45 -10 l-45
0 0 55 0 55 45 0 c25 0 45 -4 45 -10z m184 -28 c5 -17 12 -32 16 -32 4 0 11
15 16 32 6 18 17 34 26 36 15 3 14 -4 -5 -52 -13 -33 -28 -56 -37 -56 -9 0
-24 23 -37 56 -19 48 -20 55 -5 52 9 -2 20 -18 26 -36z m-2114 -612 l0 -330
174 0 c264 0 453 31 661 109 32 12 59 20 62 18 2 -2 -14 -43 -36 -91 l-40 -86
-627 0 -626 0 6 43 c13 92 26 331 26 495 l0 172 200 0 200 0 0 -330z m1818
308 c-15 -23 -377 -616 -386 -631 -2 -5 146 -7 329 -5 265 4 352 8 419 22 106
22 244 60 311 87 29 11 54 18 56 15 3 -2 -13 -43 -35 -90 l-41 -86 -746 0
-747 0 4 53 c3 48 19 77 188 354 l185 302 239 1 238 0 -14 -22z"/>
<path d="M1687 2533 c-12 -12 -7 -33 8 -33 17 0 19 9 7 28 -5 7 -11 9 -15 5z"/>
<path d="M2650 2530 c0 -22 1 -23 24 -14 23 9 20 34 -4 34 -13 0 -20 -7 -20
-20z"/>
<path d="M3070 2514 c0 -28 4 -35 16 -32 40 8 44 68 4 68 -16 0 -20 -6 -20
-36z"/>
</g>
</svg>
